<svg width="780" height="180" viewBox="0 0 780 180" fill="none" xmlns="http://www.w3.org/2000/svg">
  <rect width="780" height="180" rx="38" fill="white"/>
  <g transform="translate(34 26)">
    <rect width="128" height="128" rx="34" fill="url(#g)"/>
    <circle cx="64" cy="64" r="38" stroke="white" stroke-width="8"/>
    <path d="M28 70C42 56 51 55 64 70C77 85 88 83 102 66" stroke="white" stroke-width="8" stroke-linecap="round"/>
    <path d="M64 28C54 43 50 56 50 70C50 84 55 97 64 108" stroke="white" stroke-width="6" stroke-linecap="round"/>
    <path d="M64 28C74 43 78 56 78 70C78 84 73 97 64 108" stroke="white" stroke-width="6" stroke-linecap="round"/>
    <path d="M41 113C48 124 58 130 64 130C70 130 80 124 87 113" stroke="white" stroke-width="8" stroke-linecap="round"/>
  </g>
  <text x="188" y="78" font-family="Inter, Arial, sans-serif" font-size="46" font-weight="900" fill="#0F2747">The World Savers</text>
  <text x="190" y="120" font-family="Inter, Arial, sans-serif" font-size="24" font-weight="700" fill="#16B8C4">Students Creating Impact</text>
  <defs><linearGradient id="g" x1="12" y1="12" x2="118" y2="118"><stop stop-color="#0EA5E9"/><stop offset=".55" stop-color="#16B8C4"/><stop offset="1" stop-color="#3FBF7F"/></linearGradient></defs>
</svg>
